<svg width="80" height="26" viewBox="0 0 80 26" fill="none" xmlns="http://www.w3.org/2000/svg">
<path d="M9.63802 0.0590267C9.036 0.309731 6.04554 3.30463 4.57321 5.14087C1.28174 9.22666 -0.314924 13.2989 0.0515227 16.6597C0.404882 19.8714 1.96882 22.5546 4.52086 24.296C7.05327 26.0238 10.1811 26.4643 13.1127 25.4953C13.4006 25.4005 13.9896 25.143 14.4215 24.9194C18.4458 22.8731 20.6707 18.2656 19.82 13.7258C19.1656 10.2227 16.9146 6.47569 13.1193 2.55252C12.0199 1.41418 10.7046 0.21487 10.4102 0.0793552C10.2073 -0.0155067 9.83433 -0.0290585 9.63802 0.0590267Z" fill="#22252A"/>
<path d="M37.988 14.212L33.2 12.52L28.448 14.392C27.962 14.59 27.71 14.662 27.494 14.176L26.756 12.61C26.594 12.268 26.702 12.034 27.062 11.908L31.022 10.432C31.472 10.27 31.634 10.036 31.634 9.334V8.794L27.764 8.848C27.332 8.848 27.17 8.74 27.17 8.326V6.634C27.17 6.22 27.332 6.112 27.764 6.112L38.6 5.932C39.032 5.932 39.194 6.04 39.194 6.454V8.146C39.194 8.56 39.032 8.668 38.6 8.668L34.73 8.74V9.154C34.73 9.856 34.892 10.09 35.342 10.252L39.338 11.728C39.68 11.854 39.788 12.088 39.644 12.43L38.942 13.996C38.726 14.482 38.474 14.374 37.988 14.212ZM27.692 15.22L38.708 15.04C39.14 15.04 39.302 15.148 39.302 15.562V17.254C39.302 17.668 39.14 17.776 38.708 17.776L34.73 17.848V20.71C34.73 21.34 34.604 21.52 34.046 21.52H32.354C31.796 21.52 31.67 21.34 31.67 20.71V17.902L27.692 17.956C27.26 17.956 27.098 17.848 27.098 17.434V15.742C27.098 15.328 27.26 15.22 27.692 15.22ZM41.2965 10.36C41.2965 7.282 43.9425 5.572 47.3265 5.572C50.7105 5.572 53.3565 7.282 53.3565 10.36C53.3565 13.438 50.7105 15.148 47.3265 15.148C43.9425 15.148 41.2965 13.438 41.2965 10.36ZM41.8185 15.94L52.8345 15.76C53.2665 15.76 53.4285 15.868 53.4285 16.282V17.974C53.4285 18.388 53.2665 18.496 52.8345 18.496L51.1965 18.532V20.53C51.1965 21.16 51.0705 21.34 50.5125 21.34H49.0005C48.4425 21.34 48.3165 21.16 48.3165 20.53V18.568L46.3365 18.604V20.71C46.3365 21.34 46.2105 21.52 45.6525 21.52H44.1405C43.5825 21.52 43.4565 21.34 43.4565 20.71V18.658L41.8185 18.676C41.3865 18.676 41.2245 18.568 41.2245 18.154V16.462C41.2245 16.048 41.3865 15.94 41.8185 15.94ZM47.3265 12.592C49.0545 12.592 50.1165 11.71 50.1165 10.36C50.1165 9.01 49.0545 8.128 47.3265 8.128C45.5985 8.128 44.5365 9.01 44.5365 10.36C44.5365 11.71 45.5985 12.592 47.3265 12.592ZM63.577 12.934C63.577 11.638 63.271 10.648 62.785 9.982C62.281 9.334 61.597 9.01 60.823 9.01C60.049 9.01 59.365 9.334 58.879 9.982C58.375 10.648 58.069 11.638 58.069 12.934C58.069 14.23 58.375 15.22 58.879 15.868C59.365 16.516 60.049 16.84 60.823 16.84C61.597 16.84 62.281 16.516 62.785 15.868C63.271 15.22 63.577 14.23 63.577 12.934ZM66.727 12.934C66.727 15.022 66.043 16.732 64.963 17.902C63.883 19.072 62.407 19.72 60.823 19.72C59.239 19.72 57.763 19.072 56.683 17.902C55.603 16.732 54.919 15.022 54.919 12.916C54.919 10.828 55.603 9.118 56.683 7.948C57.763 6.778 59.239 6.13 60.823 6.13C62.407 6.13 63.883 6.796 64.963 7.966C66.043 9.136 66.727 10.846 66.727 12.934ZM74.7274 18.658L71.1814 11.98L71.2894 18.73C71.3074 19.306 71.1814 19.54 70.6054 19.54H69.0214C68.4274 19.54 68.3374 19.306 68.3194 18.73L68.1394 7.246C68.1214 6.544 68.3374 6.31 68.9674 6.31H70.1014C70.4614 6.31 70.6774 6.328 70.8394 6.4C70.9834 6.49 71.0914 6.634 71.2174 6.868L75.2494 14.608V7.246C75.2494 6.544 75.4474 6.31 76.0774 6.31H77.3914C78.0214 6.31 78.2194 6.544 78.2194 7.246V18.586C78.2194 19.306 78.0394 19.54 77.4094 19.54H76.0594C75.3574 19.54 75.0874 19.306 74.7274 18.658Z" fill="#22252A"/>
</svg>
